<mxfile host="app.diagrams.net" modified="2020-07-28T14:30:37.902Z" agent="5.0 (Windows NT 10.0; Win64; x64) AppleWebKit/537.36 (KHTML, like Gecko) Chrome/84.0.4147.105 Safari/537.36" etag="Z_MUv0lxpSD4x63E_Lxh" version="13.5.4" type="github">
  <diagram id="CQrSgF1FslEie6V9a_cm" name="Page-1">
    <mxGraphModel dx="868" dy="450" grid="0" gridSize="10" guides="1" tooltips="1" connect="1" arrows="1" fold="1" page="0" pageScale="1" pageWidth="850" pageHeight="1100" background="none" math="0" shadow="0">
      <root>
        <mxCell id="0" />
        <mxCell id="1" parent="0" />
        <mxCell id="Gq51Y3VWpe5U90bKcL5a-10" value="" style="rounded=0;whiteSpace=wrap;html=1;" parent="1" vertex="1">
          <mxGeometry x="170" y="170" width="400" height="120" as="geometry" />
        </mxCell>
        <object label="Esmart Permit Application" id="Gq51Y3VWpe5U90bKcL5a-1">
          <mxCell style="whiteSpace=wrap;html=1;aspect=fixed;" parent="1" vertex="1">
            <mxGeometry x="10" y="190" width="80" height="80" as="geometry" />
          </mxCell>
        </object>
        <mxCell id="Gq51Y3VWpe5U90bKcL5a-2" value="Business layer" style="whiteSpace=wrap;html=1;aspect=fixed;" parent="1" vertex="1">
          <mxGeometry x="320" y="190" width="80" height="80" as="geometry" />
        </mxCell>
        <mxCell id="Gq51Y3VWpe5U90bKcL5a-3" value="Data Access Layer&amp;nbsp;" style="whiteSpace=wrap;html=1;aspect=fixed;" parent="1" vertex="1">
          <mxGeometry x="440" y="190" width="80" height="80" as="geometry" />
        </mxCell>
        <mxCell id="Gq51Y3VWpe5U90bKcL5a-4" value="Oracle/Mysql&lt;br&gt;" style="whiteSpace=wrap;html=1;aspect=fixed;" parent="1" vertex="1">
          <mxGeometry x="660" y="190" width="80" height="80" as="geometry" />
        </mxCell>
        <mxCell id="Gq51Y3VWpe5U90bKcL5a-5" value="Nhibernate" style="whiteSpace=wrap;html=1;aspect=fixed;" parent="1" vertex="1">
          <mxGeometry x="400" y="30" width="80" height="80" as="geometry" />
        </mxCell>
        <mxCell id="Gq51Y3VWpe5U90bKcL5a-6" value="Asp .net web pages&lt;br&gt;Java script" style="whiteSpace=wrap;html=1;aspect=fixed;" parent="1" vertex="1">
          <mxGeometry x="220" y="30" width="80" height="80" as="geometry" />
        </mxCell>
        <mxCell id="Gq51Y3VWpe5U90bKcL5a-7" value="Presentation Layer" style="whiteSpace=wrap;html=1;aspect=fixed;" parent="1" vertex="1">
          <mxGeometry x="200" y="190" width="80" height="80" as="geometry" />
        </mxCell>
        <mxCell id="Gq51Y3VWpe5U90bKcL5a-11" value="" style="endArrow=classic;startArrow=classic;html=1;shadow=0;sketch=0;fillColor=#f5f5f5;strokeColor=#666666;curved=1;" parent="1" edge="1">
          <mxGeometry width="50" height="50" relative="1" as="geometry">
            <mxPoint x="160" y="229.5" as="sourcePoint" />
            <mxPoint x="90" y="229.5" as="targetPoint" />
          </mxGeometry>
        </mxCell>
        <mxCell id="Gq51Y3VWpe5U90bKcL5a-14" value="" style="endArrow=classic;startArrow=classic;html=1;shadow=0;sketch=0;fillColor=#f5f5f5;strokeColor=#666666;curved=1;" parent="1" edge="1">
          <mxGeometry width="50" height="50" relative="1" as="geometry">
            <mxPoint x="650" y="229.5" as="sourcePoint" />
            <mxPoint x="580" y="229.5" as="targetPoint" />
            <Array as="points">
              <mxPoint x="620" y="229.5" />
            </Array>
          </mxGeometry>
        </mxCell>
        <mxCell id="Gq51Y3VWpe5U90bKcL5a-16" value="" style="endArrow=classic;html=1;shadow=0;strokeColor=#000000;" parent="1" edge="1">
          <mxGeometry width="50" height="50" relative="1" as="geometry">
            <mxPoint x="263" y="120" as="sourcePoint" />
            <mxPoint x="263" y="160" as="targetPoint" />
          </mxGeometry>
        </mxCell>
        <mxCell id="Gq51Y3VWpe5U90bKcL5a-17" value="" style="endArrow=classic;html=1;shadow=0;strokeColor=#000000;exitX=0.5;exitY=1;exitDx=0;exitDy=0;" parent="1" source="Gq51Y3VWpe5U90bKcL5a-5" edge="1">
          <mxGeometry width="50" height="50" relative="1" as="geometry">
            <mxPoint x="440" y="120" as="sourcePoint" />
            <mxPoint x="440" y="160" as="targetPoint" />
          </mxGeometry>
        </mxCell>
        <mxCell id="Gq51Y3VWpe5U90bKcL5a-19" value="" style="endArrow=classic;html=1;shadow=0;strokeColor=#000000;" parent="1" edge="1">
          <mxGeometry width="50" height="50" relative="1" as="geometry">
            <mxPoint x="170" y="229.5" as="sourcePoint" />
            <mxPoint x="200" y="229.5" as="targetPoint" />
          </mxGeometry>
        </mxCell>
        <mxCell id="Gq51Y3VWpe5U90bKcL5a-24" value="" style="endArrow=classic;html=1;shadow=0;strokeColor=#000000;" parent="1" edge="1">
          <mxGeometry width="50" height="50" relative="1" as="geometry">
            <mxPoint x="280" y="229.5" as="sourcePoint" />
            <mxPoint x="310" y="229.5" as="targetPoint" />
          </mxGeometry>
        </mxCell>
        <mxCell id="Gq51Y3VWpe5U90bKcL5a-28" value="" style="endArrow=classic;html=1;shadow=0;strokeColor=#000000;" parent="1" edge="1">
          <mxGeometry width="50" height="50" relative="1" as="geometry">
            <mxPoint x="400" y="229.5" as="sourcePoint" />
            <mxPoint x="430" y="229.5" as="targetPoint" />
          </mxGeometry>
        </mxCell>
        <mxCell id="Gq51Y3VWpe5U90bKcL5a-29" value="" style="endArrow=classic;html=1;shadow=0;strokeColor=#000000;" parent="1" edge="1">
          <mxGeometry width="50" height="50" relative="1" as="geometry">
            <mxPoint x="530" y="229.5" as="sourcePoint" />
            <mxPoint x="560" y="229.5" as="targetPoint" />
          </mxGeometry>
        </mxCell>
      </root>
    </mxGraphModel>
  </diagram>
</mxfile>
